<?xml version="1.0" encoding="utf-8"?>
<svg version="1.1" xmlns:xlink="http://www.w3.org/1999/xlink" width="549px" height="22px" xmlns="http://www.w3.org/2000/svg">
  <g transform="matrix(1 0 0 1 -834 -384 )">
    <path d="M 834.5 394.253105590062  C 834.5 394.253105590062  834.5 389  834.5 389  C 834.5 386.514718625761  836.514718625761 384.5  839 384.5  C 839 384.5  1378 384.5  1378 384.5  C 1380.48528137424 384.5  1382.5 386.514718625761  1382.5 389  C 1382.5 389  1382.5 394.253105590062  1382.5 394.253105590062  C 1382.5 396.738386964301  1380.48528137424 398.753105590062  1378 398.753105590062  C 1378 398.753105590062  1145.70068174346 398.753105590062  1145.70068174346 398.753105590062  C 1145.70068174346 398.753105590062  1109.79517261484 404.950603236507  1109.79517261484 404.950603236507  C 1109.79517261484 404.950603236507  1079.67310119822 398.753105590062  1079.67310119822 398.753105590062  C 1079.67310119822 398.753105590062  839 398.753105590062  839 398.753105590062  C 836.514718625761 398.753105590062  834.5 396.738386964301  834.5 394.253105590062  Z " fill-rule="nonzero" fill="#ffffff" stroke="none" />
    <path d="M 834 394.253105590062  C 834 394.253105590062  834 389  834 389  C 834 386.238576250846  836.238576250846 384  839 384  C 839 384  1378 384  1378 384  C 1380.76142374915 384  1383 386.238576250846  1383 389  C 1383 389  1383 394.253105590062  1383 394.253105590062  C 1383 397.014529339216  1380.76142374915 399.253105590062  1378 399.253105590062  C 1378 399.253105590062  1145.74351648352 399.253105590062  1145.74351648352 399.253105590062  C 1145.74351648352 399.253105590062  1109.78703296703 405.459401709402  1109.78703296703 405.459401709402  C 1109.78703296703 405.459401709402  1079.6221978022 399.253105590062  1079.6221978022 399.253105590062  C 1079.6221978022 399.253105590062  839 399.253105590062  839 399.253105590062  C 836.238576250846 399.253105590062  834 397.014529339216  834 394.253105590062  Z M 835 394.253105590062  C 835 396.462244589385  836.790861000677 398.253105590062  839 398.253105590062  C 839 398.253105590062  1079.72400459423 398.253105590062  1079.72400459423 398.253105590062  C 1079.72400459423 398.253105590062  1109.80331226264 404.441804763613  1109.80331226264 404.441804763613  C 1109.80331226264 404.441804763613  1145.6578470034 398.253105590062  1145.6578470034 398.253105590062  C 1145.6578470034 398.253105590062  1378 398.253105590062  1378 398.253105590062  C 1380.20913899932 398.253105590062  1382 396.462244589385  1382 394.253105590062  C 1382 394.253105590062  1382 389  1382 389  C 1382 386.790861000677  1380.20913899932 385  1378 385  C 1378 385  839 385  839 385  C 836.790861000677 385  835 386.790861000677  835 389  C 835 389  835 394.253105590062  835 394.253105590062  Z " fill-rule="nonzero" fill="#d7d7d7" stroke="none" />
  </g>
</svg>