<?xml version="1.0" encoding="utf-8"?>
<svg version="1.1" xmlns:xlink="http://www.w3.org/1999/xlink" width="75px" height="19px" xmlns="http://www.w3.org/2000/svg">
  <defs>
    <mask fill="white" id="clip6">
      <path d="M 0 14  L 0 5  C 0 2.2  2.19999999999999 0  5 0  L 22.6666666666679 0  L 31.3333333333321 0  L 70 0  C 72.8 0  75 2.2  75 5  L 75 14  C 75 16.8  72.8 19  70 19  L 5 19  C 2.19999999999999 19  0 16.8  0 14  Z " fill-rule="evenodd" />
    </mask>
  </defs>
  <g transform="matrix(1 0 0 1 -537 -748 )">
    <path d="M 0 14  L 0 5  C 0 2.2  2.19999999999999 0  5 0  L 22.6666666666679 0  L 31.3333333333321 0  L 70 0  C 72.8 0  75 2.2  75 5  L 75 14  C 75 16.8  72.8 19  70 19  L 5 19  C 2.19999999999999 19  0 16.8  0 14  Z " fill-rule="nonzero" fill="#ffffff" stroke="none" transform="matrix(1 0 0 1 537 748 )" />
    <path d="M 0 14  L 0 5  C 0 2.2  2.19999999999999 0  5 0  L 22.6666666666679 0  L 31.3333333333321 0  L 70 0  C 72.8 0  75 2.2  75 5  L 75 14  C 75 16.8  72.8 19  70 19  L 5 19  C 2.19999999999999 19  0 16.8  0 14  Z " stroke-width="2" stroke="#797979" fill="none" transform="matrix(1 0 0 1 537 748 )" mask="url(#clip6)" />
  </g>
</svg>