<?xml version="1.0" encoding="utf-8"?>
<svg version="1.1" xmlns:xlink="http://www.w3.org/1999/xlink" width="8px" height="7px" xmlns="http://www.w3.org/2000/svg">
  <g transform="matrix(1 0 0 1 -329 -215 )">
    <path d="M 3.823872 3.22672  L 6.873344 0.586208000000001  L 5.659904 0.586208000000001  C 5.476608 0.586208000000001  5.328128 0.457184000000001  5.328128 0.298592  C 5.328128 0.14  5.476608 0.0109760000000006  5.659904 0.0109760000000006  L 7.651584 0.0109760000000006  C 7.83488 0.0109760000000006  7.98336 0.139104000000001  7.98336 0.298592  L 7.98336 2.0216  C 7.98336 2.180192  7.83488 2.309216  7.651584 2.309216  C 7.468288 2.309216  7.319808 2.180192  7.319808 2.0216  L 7.319808 1.012704  L 4.292864 3.632608  C 4.162816 3.744608  3.952896 3.744608  3.823872 3.632608  C 3.7614941033428 3.57918864454884  3.72633681414506 3.50603595778861  3.72633681414506 3.429664  C 3.72633681414506 3.35329204221139  3.7614941033428 3.28013935545116  3.823872 3.22672  Z M 3.998976 6.491744  C 5.88416 6.489952  7.412992 5.15312  7.412992 3.503584  C 7.412992 3.366496  7.539968 3.254496  7.697664 3.254496  C 7.854336 3.254496  7.982336 3.3656  7.982336 3.503584  C 7.982336 5.428192  6.199552 6.988128  4 6.988128  C 1.799424 6.988128  0.0166399999999991 5.428192  0.0166399999999991 3.503584  C 0.0166399999999991 1.578976  1.799424 0.0190399999999987  3.998976 0.0190399999999987  C 4.155648 0.0190399999999987  4.283648 0.130143999999999  4.283648 0.268127999999999  C 4.283648 0.405215999999999  4.156672 0.517216  3.998976 0.517216  C 2.113792 0.517216  0.584960000000001 1.854048  0.584960000000001 3.50448  C 0.584960000000001 5.154016  2.112768 6.491744  3.998976 6.491744  Z " fill-rule="nonzero" fill="#ffffff" stroke="none" transform="matrix(1 0 0 1 329 215 )" />
  </g>
</svg>