<?xml version="1.0" encoding="utf-8"?>
<svg version="1.1" xmlns:xlink="http://www.w3.org/1999/xlink" width="14px" height="14px" xmlns="http://www.w3.org/2000/svg">
  <g transform="matrix(1 0 0 1 -1029 -148 )">
    <path d="M 1036 148  C 1039.92 148  1043 151.08  1043 155  C 1043 158.92  1039.92 162  1036 162  C 1032.08 162  1029 158.92  1029 155  C 1029 151.08  1032.08 148  1036 148  Z " fill-rule="nonzero" fill="#ffffff" stroke="none" fill-opacity="0" />
    <path d="M 1036 148.5  C 1039.64 148.5  1042.5 151.36  1042.5 155  C 1042.5 158.64  1039.64 161.5  1036 161.5  C 1032.36 161.5  1029.5 158.64  1029.5 155  C 1029.5 151.36  1032.36 148.5  1036 148.5  Z " stroke-width="1" stroke="#d9d9d9" fill="none" />
  </g>
</svg>