<?xml version="1.0" encoding="utf-8"?>
<svg version="1.1" xmlns:xlink="http://www.w3.org/1999/xlink" width="14px" height="14px" xmlns="http://www.w3.org/2000/svg">
  <g transform="matrix(1 0 0 1 -1089 -148 )">
    <path d="M 1096 148  C 1099.92 148  1103 151.08  1103 155  C 1103 158.92  1099.92 162  1096 162  C 1092.08 162  1089 158.92  1089 155  C 1089 151.08  1092.08 148  1096 148  Z " fill-rule="nonzero" fill="#ffffff" stroke="none" fill-opacity="0" />
    <path d="M 1096 148.5  C 1099.64 148.5  1102.5 151.36  1102.5 155  C 1102.5 158.64  1099.64 161.5  1096 161.5  C 1092.36 161.5  1089.5 158.64  1089.5 155  C 1089.5 151.36  1092.36 148.5  1096 148.5  Z " stroke-width="1" stroke="#108ee9" fill="none" />
  </g>
</svg>