<?xml version="1.0" encoding="utf-8"?>
<svg version="1.1" xmlns:xlink="http://www.w3.org/1999/xlink" width="12px" height="12px" viewBox="1053 437.5  12 12" xmlns="http://www.w3.org/2000/svg">
  <path d="M 1059 437.5  C 1062.36 437.5  1065 440.14  1065 443.5  C 1065 446.86  1062.36 449.5  1059 449.5  C 1055.64 449.5  1053 446.86  1053 443.5  C 1053 440.14  1055.64 437.5  1059 437.5  Z " fill-rule="nonzero" fill="#f0f0f0" stroke="none" />
  <path d="M 1059 438  C 1062.08 438  1064.5 440.42  1064.5 443.5  C 1064.5 446.58  1062.08 449  1059 449  C 1055.92 449  1053.5 446.58  1053.5 443.5  C 1053.5 440.42  1055.92 438  1059 438  Z " stroke-width="1" stroke="#797979" fill="none" />
  <path d="M 1059 446.5  C 1057.32 446.5  1056 445.18  1056 443.5  C 1056 441.82  1057.32 440.5  1059 440.5  C 1060.68 440.5  1062 441.82  1062 443.5  C 1062 445.18  1060.68 446.5  1059 446.5  " fill-rule="nonzero" fill="#797979" stroke="none" />
</svg>