<?xml version="1.0" encoding="utf-8"?>
<svg version="1.1" xmlns:xlink="http://www.w3.org/1999/xlink" width="11px" height="11px" xmlns="http://www.w3.org/2000/svg">
  <g transform="matrix(1 0 0 1 -1273 -468 )">
    <path d="M 8.37936 2.62768  L 8.932704 2.074336  L 7.826016 0.967648000000001  L 7.272672 1.520992  L 8.37936 2.62768  Z M 9.763424 1.795552  C 9.915488 1.949024  9.915488 2.19824  9.763424 2.350304  L 8.380768 3.73296  L 6.165984 1.519584  L 7.54864 0.136928000000001  C 7.700704 -0.0151360000000002  7.948512 -0.0151360000000002  8.101984 0.136928000000001  L 9.763424 1.795552  Z M 0.0228800000000014 10.585696  C 0.0228800000000014 10.370272  0.197472000000001 10.194272  0.414303999999999 10  L 10.585696 10  C 10.80112 10.194272  10.97712 10.368864  10.97712 10.585696  C 10.97712 10.802528  10.802528 10.97712  10.585696 11  L 0.414303999999999 11  C 0.19888 10.97712  0.0228800000000014 10.802528  0.0228800000000014 10.585696  Z M 1.187296 6.49968  L 5.61264 2.074336  L 7.826016 4.287712  L 3.400672 8.713056  L 1.209824 9.150944  C 0.998624 9.193184  0.791647999999999 9.056608  0.749408000000001 8.844  C 0.739551999999999 8.793312  0.739551999999999 8.741216  0.749408000000001 8.690528  L 1.187296 6.49968  Z M 5.614048 3.179616  L 1.908192 6.885472  L 1.632224 8.268128  L 3.01488 7.99216  L 6.720736 4.286304  L 5.614048 3.179616  Z " fill-rule="nonzero" fill="#ffffff" stroke="none" transform="matrix(1 0 0 1 1273 468 )" />
  </g>
</svg>