<?xml version="1.0" encoding="utf-8"?>
<svg version="1.1" xmlns:xlink="http://www.w3.org/1999/xlink" width="16px" height="16px" xmlns="http://www.w3.org/2000/svg">
  <g transform="matrix(1 0 0 1 -1094 -328 )">
    <path d="M 14.828032 2.31065600000002  L 1.174016 2.31065600000002  L 1.174016 14.825984  L 14.828032 14.825984  L 14.828032 2.31065600000002  Z M 12.552704 1.174016  L 12.550656 1.174016  L 14.825984 1.174016  C 15.45472 1.174016  15.9646719999999 1.683968  16 2.312704  L 16 14.828032  C 15.9646719999999 15.456768  15.45472 15.96672  14.825984 16  L 1.174016 16  C 0.545280000000033 15.96672  0.0353280000000571 15.456768  0 14.828032  L 0 2.31065600000002  C 0.0353280000000571 1.68191999999999  0.545280000000033 1.17196800000002  1.174016 1.17196800000002  L 3.44934399999996 1.17196800000002  L 3.44934399999996 0.602623999999984  C 3.44934399999996 0.289279999999993  3.70329600000005 0.0332800000000134  4.01868799999999 0.0332800000000134  C 4.33203200000001 0.0332800000000134  4.58803200000002 0.28723200000001  4.58803200000002 0.602623999999984  L 4.58803200000002 1.17196800000002  L 11.414016 1.17196800000002  L 11.414016 0.602623999999984  C 11.414016 0.289279999999993  11.667968 0.0332800000000134  11.9833600000001 0.0332800000000134  C 12.296704 0.0332800000000134  12.552704 0.28723200000001  12.552704 0.602623999999984  L 12.552704 1.174016  Z M 14.828032 4.58598400000001  L 1.174016 4.58598400000001  L 1.174016 6  L 14.828032 6  L 14.828032 4.58598400000001  Z M 4.58803200000002 2.31065600000002  L 3.44934399999996 2.31065599999999  L 3.44934399999996 2.87999999999999  C 3.44934399999996 3.19334400000001  3.70329600000005 3.44934399999999  4.01868799999999 3.44934399999999  C 4.33203200000001 3.44934399999999  4.58803200000002 3.19539199999999  4.58803200000002 2.87999999999999  L 4.58803200000002 2.31065600000002  Z M 12.552704 2.31065600000002  L 11.414016 2.31065599999999  L 11.414016 2.87999999999999  C 11.414016 3.19334400000001  11.667968 3.44934399999999  11.9833600000001 3.44934399999999  C 12.296704 3.44934399999999  12.552704 3.19539199999999  12.552704 2.87999999999999  L 12.552704 2.31065600000002  Z " fill-rule="nonzero" fill="#ffffff" stroke="none" transform="matrix(1 0 0 1 1094 328 )" />
  </g>
</svg>