<?xml version="1.0" encoding="utf-8"?>
<svg version="1.1" xmlns:xlink="http://www.w3.org/1999/xlink" width="15px" height="19px" xmlns="http://www.w3.org/2000/svg">
  <g transform="matrix(1 0 0 1 -1080 -781 )">
    <path d="M 3.42 13.0731692307692  L 11.4192 13.0731692307692  L 11.4192 10.0308307692308  C 11.4192 8.33778461538462  9.528 6.57692307692308  7.4184 6.57692307692308  C 5.3112 6.57692307692308  3.42 8.33544615384615  3.42 10.0308307692308  L 3.42 13.0731692307692  Z M 7.4184 5.27907692307692  C 10.3632 5.27907692307692  12.7536 7.71107692307692  12.7536 10.0308307692308  L 12.7536 14  L 2.0856 14  L 2.0856 10.0308307692308  C 2.0856 7.71107692307692  4.4736 5.27907692307692  7.4184 5.27907692307692  Z M 6.7512 0.730769230769231  C 6.7536 0.372984615384615  7.0512 0.080676923076922  7.4184 0.080676923076922  C 7.7856 0.080676923076922  8.0856 0.370646153846152  8.0856 0.730769230769231  L 8.0856 2.03095384615385  C 8.0856 2.38873846153846  7.788 2.68104615384615  7.4184 2.68104615384615  C 7.0512 2.68104615384615  6.7512 2.39107692307692  6.7512 2.03095384615385  L 6.7512 0.730769230769231  Z M 10.5096 1.61938461538461  C 10.692 1.30836923076923  11.1 1.2008  11.4192 1.38086153846154  C 11.7384 1.56092307692308  11.8464 1.95846153846154  11.664 2.26713846153846  L 10.9968 3.39193846153846  C 10.812 3.70295384615385  10.404 3.80818461538462  10.0872 3.63046153846154  C 9.768 3.4504  9.66 3.05286153846154  9.8424 2.74418461538462  L 10.5096 1.61938461538461  Z M 13.6944 3.97889230769231  C 13.956 3.724  14.3784 3.724  14.6376 3.97889230769231  C 14.8968 4.23144615384615  14.8968 4.64301538461539  14.6376 4.89790769230769  L 13.6944 5.81692307692308  C 13.4352 6.06947692307692  13.0128 6.06947692307692  12.7512 5.81692307692308  C 12.492 5.56436923076923  12.492 5.1528  12.7512 4.89790769230769  L 13.6944 3.97889230769231  Z M 1.4208 19  C 1.0512 18.9193230769231  0.753600000000002 18.6270153846154  0.753599999999999 18.2692307692308  C 0.753599999999999 17.9114461538462  1.0512 17.6191384615385  1.4208 17.6191384615385  L 13.4208 17.6191384615385  C 13.788 17.6191384615385  14.088 17.9091076923077  14.088 18.2692307692308  C 14.088 18.6293538461539  13.7904 18.9193230769231  13.4208 19  L 1.4208 19  Z M 2.9952 2.26713846153846  C 2.8128 1.95612307692308  2.9208 1.55858461538462  3.24 1.38086153846154  C 3.5592 1.2008  3.9672 1.30836923076923  4.1496 1.61938461538461  L 4.8168 2.74418461538462  C 5.0016 3.0552  4.8912 3.45273846153846  4.572 3.63046153846154  C 4.2528 3.81052307692308  3.8448 3.70295384615385  3.6624 3.39193846153846  L 2.9952 2.26713846153846  Z M 0.362400000000001 4.89790769230769  C 0.1008 4.64301538461539  0.1008 4.23144615384615  0.362400000000001 3.97889230769231  C 0.621600000000001 3.72633846153846  1.044 3.72633846153846  1.3056 3.97889230769231  L 2.2488 4.89790769230769  C 2.508 5.15046153846154  2.508 5.56203076923077  2.2488 5.81692307692308  C 1.9896 6.06947692307692  1.5672 6.06947692307692  1.3056 5.81692307692308  L 0.362400000000001 4.89790769230769  Z " fill-rule="nonzero" fill="#1890ff" stroke="none" transform="matrix(1 0 0 1 1080 781 )" />
  </g>
</svg>