<?xml version="1.0" encoding="utf-8"?>
<svg version="1.1" xmlns:xlink="http://www.w3.org/1999/xlink" width="35px" height="20px" xmlns="http://www.w3.org/2000/svg">
  <g transform="matrix(1 0 0 1 -25 -23 )">
    <path d="M 26.91650390625 8.44296419650291  C 27.56591796875 8.27643630308076  28.2210286458333 8.19317235636969  28.8818359375 8.19317235636969  C 30.5680338541667 8.19317235636969  32.00927734375 8.73993893977241  33.20556640625 9.83347210657785  C 34.40185546875 10.9270052733833  35 12.2842076047738  35 13.9050791007494  C 35 15.6480710519012  34.3790690104167 17.0996391895643  33.13720703125 18.2597835137386  C 31.8953450520833 19.4199278379129  30.3743489583333 20  28.57421875 20  C 27.6057942708333 20  26.6829427083333 19.8473494310297  25.8056640625 19.5420482930891  C 24.9283854166667 19.2367471551485  24.1422526041667 18.8287538162642  23.447265625 18.3180682764363  C 22.7522786458333 17.8073827366084  22.080078125 17.2189841798501  21.4306640625 16.5528726061615  C 20.78125 15.8867610324729  20.1603190104167 15.1873438800999  19.56787109375 14.4546211490425  C 18.9754231770833 13.721898417985  18.3858235677083 12.9864002220372  17.799072265625 12.248126561199  C 17.2123209635417 11.5098529003608  16.59423828125 10.8076602830974  15.94482421875 10.1415487094088  C 15.29541015625 9.47543713572023  14.62890625 8.88703857896198  13.9453125 8.37635303913405  C 13.26171875 7.86566749930613  12.4869791666667 7.45767416042187  11.62109375 7.15237302248127  C 10.7552083333333 6.84707188454066  9.84944661458333 6.69442131557036  8.90380859375 6.69442131557036  C 7.14925130208333 6.69442131557036  5.716552734375 7.20233139050791  4.605712890625 8.21815154038301  C 3.494873046875 9.23397169025812  2.939453125 10.5911740216486  2.939453125 12.2897585345545  C 2.939453125 14.0327504857064  3.53190104166667 15.4204829308909  4.716796875 16.4529558701082  C 5.90169270833333 17.4854288093256  7.39990234375 18.0016652789342  9.21142578125 18.0016652789342  C 10.3507486979167 18.0016652789342  11.53564453125 17.7935054121565  12.76611328125 17.3771856786012  C 13.99658203125 16.9608659450458  15.0960286458333 16.4140993616431  16.064453125 15.736885928393  C 16.1214192708333 15.6924784901471  16.2410481770833 15.5897862892034  16.42333984375 15.428809325562  C 16.6056315104167 15.2678323619206  16.7765299479167 15.1346100471829  16.93603515625 15.0291423813489  C 17.0955403645833 14.9236747155148  17.2208658854167 14.8709408825978  17.31201171875 14.8709408825978  C 17.4715169270833 14.8709408825978  17.611083984375 14.9292256452956  17.730712890625 15.0457951706911  C 17.850341796875 15.1623646960866  17.91015625 15.2983624757147  17.91015625 15.4537885095754  C 17.91015625 15.7202331390508  17.568359375 16.1476547321676  16.884765625 16.7360532889259  C 15.7340494791667 17.7130169303358  14.398193359375 18.5012489592007  12.877197265625 19.1007493755204  C 11.356201171875 19.7002497918401  9.87223307291667 20  8.42529296875 20  C 6.90999348958333 20  5.511474609375 19.6780460727172  4.229736328125 19.0341382181515  C 2.947998046875 18.3902303635859  1.922607421875 17.4743269497641  1.153564453125 16.2864279766861  C 0.384521484375 15.0985290036081  0 13.7607549264502  0 12.2731057452123  C 0 9.99722453510963  0.806070963541667 8.10435747987788  2.418212890625 6.59450457951707  C 4.03035481770833 5.08465167915626  6.00992838541667 4.32972522897585  8.35693359375 4.32972522897585  C 9.72412109375 4.32972522897585  11.014404296875 4.57119067443797  12.227783203125 5.0541215653622  C 13.441162109375 5.53705245628643  14.4978841145833 6.16430752150985  15.39794921875 6.93588676103247  C 16.2980143229167 7.70746600055509  17.1610514322917 8.55675825700805  17.987060546875 9.48376353039134  C 18.8130696614583 10.4107688037746  19.6048990885417 11.3405495420483  20.362548828125 12.2731057452123  C 21.1201985677083 13.2056619483764  21.8806966145833 14.0577296697197  22.64404296875 14.8293089092423  C 23.4073893229167 15.6008881487649  24.259033203125 16.2281432139883  25.198974609375 16.7110741049126  C 26.138916015625 17.1940049958368  27.12158203125 17.4354704412989  28.14697265625 17.4354704412989  C 29.30908203125 17.4354704412989  30.2689615885417 17.0940882597835  31.026611328125 16.4113238967527  C 31.7842610677083 15.7285595337219  32.1630859375 14.8265334443519  32.1630859375 13.7052456286428  C 32.1630859375 12.6505689703025  31.795654296875 11.7679711351651  31.060791015625 11.0574521232306  C 30.325927734375 10.3469331112961  29.4173177083333 9.99167360532889  28.3349609375 9.99167360532889  C 27.9931640625 9.99167360532889  27.5288899739583 10.0943658062726  26.942138671875 10.2997502081599  C 26.3553873697917 10.5051346100472  25.9651692708333 10.6078268109908  25.771484375 10.6078268109908  C 25.5436197916667 10.6078268109908  25.3413899739583 10.5245628642798  25.164794921875 10.3580349708576  C 24.9881998697917 10.1915070774355  24.89990234375 9.99722453510963  24.89990234375 9.7751873438801  C 24.89990234375 9.57535387177352  24.9483235677083 9.25895087427144  25.045166015625 8.82597835137386  C 25.1420084635417 8.39300582847627  25.1904296875 8.06550097141271  25.1904296875 7.84346378018318  C 25.1904296875 6.07826810990841  24.5780436197917 4.61837357757424  23.353271484375 3.46378018318068  C 22.1284993489583 2.30918678878712  20.6103515625 1.73189009159034  18.798828125 1.73189009159034  C 18.1380208333333 1.73189009159034  17.5028483072917 1.834582292534  16.893310546875 2.03996669442132  C 16.2837727864583 2.24535109630863  15.8052571614583 2.47016375242853  15.457763671875 2.71440466278102  C 15.1102701822917 2.9586455731335  14.7941080729167 3.1834582292534  14.50927734375 3.38884263114072  C 14.2244466145833 3.59422703302803  14.0364583333333 3.69691923397169  13.9453125 3.69691923397169  C 13.7744140625 3.69691923397169  13.629150390625 3.63863447127394  13.509521484375 3.52206494587843  C 13.389892578125 3.40549542048293  13.330078125 3.2639467110741  13.330078125 3.09741881765196  C 13.330078125 2.8864834859839  13.4724934895833 2.63114071606994  13.75732421875 2.33139050791007  C 14.4295247395833 1.58756591729114  15.2669270833333 1.01304468498473  16.26953125 0.607826810990841  C 17.2721354166667 0.202608936996944  18.3089192708333 0  19.3798828125 0  C 21.5559895833333 0  23.3675130208333 0.696641687482653  24.814453125 2.08992506244796  C 26.2613932291667 3.48320843741326  26.98486328125 5.23452678323619  26.98486328125 7.34388009991673  C 26.98486328125 7.75464890369137  26.9620768229167 8.1210102692201  26.91650390625 8.44296419650291  Z " fill-rule="nonzero" fill="#ffffff" stroke="none" transform="matrix(1 0 0 1 25 23 )" />
  </g>
</svg>