<?xml version="1.0" encoding="utf-8"?>
<svg version="1.1" xmlns:xlink="http://www.w3.org/1999/xlink" width="83px" height="25px" xmlns="http://www.w3.org/2000/svg">
  <g transform="matrix(1 0 0 1 -1068 -397 )">
    <path d="M 1068 397  L 1151 397  L 1151 422  L 1068 422  L 1068 397  " fill-rule="nonzero" fill="#cccccc" stroke="none" />
    <path d="M 1070 399  L 1149 399  L 1149 420  L 1070 420  L 1070 399  " fill-rule="nonzero" fill="#ffffff" stroke="none" />
    <path d="M 1113.035 404.5  C 1111.985 404.5  1111.16 403.675  1111.16 402.625  C 1111.16 401.575  1111.985 400.75  1113.035 400.75  C 1114.085 400.75  1114.91 401.575  1114.91 402.625  C 1114.91 403.675  1114.085 404.5  1113.035 404.5  " fill-rule="nonzero" fill="#cccccc" stroke="none" />
    <path d="M 1071 420  L 1071 409  L 1090.5 404  L 1117.8 416.385542168675  L 1133.4 407  L 1149 416.385542168675  L 1149 420  L 1071 420  " fill-rule="nonzero" fill="#169bd5" stroke="none" />
  </g>
</svg>