<?xml version="1.0" encoding="utf-8"?>
<svg version="1.1" xmlns:xlink="http://www.w3.org/1999/xlink" width="24px" height="24px" xmlns="http://www.w3.org/2000/svg">
  <g transform="matrix(1 0 0 1 -1340 -346 )">
    <path d="M 8.87072542372881 1.78397288135593  C 7.38939661016949 2.24737627118644  6.03303050847458 3.03620338983051  4.89534915254237 4.08276610169492  C 5.21556610169491 5.19441355932203  5.088 6.4128  4.48401355932203 7.4567593220339  C 3.88002711864407 8.5033220338983  2.88813559322034 9.22446101694915  1.76607457627119 9.50042033898305  C 1.59945762711864 10.247593220339  1.51354576271186 11.015593220339  1.51354576271186 11.7966101694915  C 1.51354576271186 12.5776271186441  1.59945762711864 13.3456271186441  1.76607457627119 14.0928  C 2.89073898305085 14.3687593220339  3.88002711864407 15.0898983050847  4.48401355932203 16.1364610169492  C 5.088 17.180420338983  5.21556610169491 18.398806779661  4.89534915254237 19.5104542372881  C 6.03303050847458 20.5596203389831  7.38939661016949 21.3458440677966  8.87072542372881 21.8092474576271  C 9.67256949152543 20.9735593220339  10.7920271186441 20.4763118644068  12 20.4763118644068  C 13.2079728813559 20.4763118644068  14.3274305084746 20.9735593220339  15.1292745762712 21.8092474576271  C 16.6106033898305 21.3458440677966  17.9669694915254 20.5596203389831  19.1046508474576 19.5104542372881  C 18.7844338983051 18.398806779661  18.912 17.180420338983  19.515986440678 16.1364610169492  C 20.1199728813559 15.0898983050847  21.1118644067797 14.3687593220339  22.2339254237288 14.0928  C 22.4005423728814 13.3456271186441  22.4864542372881 12.5776271186441  22.4864542372881 11.7966101694915  C 22.4864542372881 11.015593220339  22.4005423728814 10.247593220339  22.2339254237288 9.50042033898305  C 21.1092610169492 9.22446101694915  20.1199728813559 8.5033220338983  19.515986440678 7.4567593220339  C 18.912 6.4128  18.7844338983051 5.19441355932203  19.1046508474576 4.08276610169492  C 17.9669694915254 3.0336  16.6106033898305 2.24737627118644  15.1292745762712 1.78397288135593  C 14.3274305084746 2.61966101694915  13.2079728813559 3.11690847457627  12 3.11690847457627  C 10.7920271186441 3.11690847457627  9.67256949152542 2.61966101694915  8.87072542372881 1.78397288135593  Z M 3.18231864406779 3.75994576271186  C 4.81724745762712 1.96621016949152  6.99107796610169 0.674928813559319  9.44607457627118 0.138630508474574  C 9.93290847457627 1.05242033898305  10.8935593220339 1.67202711864407  12 1.67202711864407  C 13.1064406779661 1.67202711864407  14.0670915254237 1.04981694915254  14.5539254237288 0.138630508474574  C 17.0089220338983 0.674928813559325  19.1827525423729 1.96621016949152  20.8176813559322 3.75734237288136  C 20.2709694915254 4.63468474576271  20.2136949152542 5.77757288135593  20.7682169491525 6.73301694915254  C 21.3227389830508 7.69106440677966  22.3406644067797 8.21434576271187  23.3742101694915 8.17789830508474  C 23.7360813559322 9.31818305084746  23.9313355932203 10.5339661016949  23.9313355932203 11.794006779661  C 23.9313355932203 13.0540474576271  23.7360813559322 14.2698305084746  23.3742101694915 15.4101152542373  C 22.3406644067797 15.3736677966102  21.3201355932203 15.8969491525424  20.7682169491525 16.8549966101695  C 20.2162983050847 17.8130440677966  20.2709694915254 18.9533288135593  20.8176813559322 19.8306711864407  C 19.1827525423729 21.6218033898305  17.0089220338983 22.9130847457627  14.5539254237288 23.4493830508475  C 14.0670915254237 22.535593220339  13.1064406779661 21.915986440678  12 21.915986440678  C 10.8935593220339 21.915986440678  9.93290847457627 22.5381966101695  9.44607457627118 23.4493830508475  C 6.99107796610169 22.9130847457627  4.81724745762712 21.6218033898305  3.18231864406779 19.8306711864407  C 3.72903050847457 18.9533288135593  3.78370169491525 17.8104406779661  3.23178305084746 16.8549966101695  C 2.67726101694915 15.8969491525424  1.65933559322034 15.3736677966102  0.625789830508472 15.4101152542373  C 0.263918644067797 14.2724338983051  0.0686644067796578 13.0566508474576  0.0686644067796578 11.7966101694915  C 0.0686644067796578 10.5365694915254  0.263918644067797 9.32078644067797  0.625789830508472 8.18050169491526  C 1.65933559322034 8.21694915254237  2.67986440677966 7.69366779661017  3.23178305084746 6.73562033898305  C 3.78370169491525 5.77757288135593  3.72903050847457 4.63728813559322  3.18231864406779 3.75994576271186  Z M 7.66014915254237 11.7966101694915  C 7.66014915254237 14.1917288135593  9.6048813559322 16.1364610169492  12 16.1364610169492  C 14.3951186440678 16.1364610169492  16.3398508474576 14.1943322033898  16.3398508474576 11.7966101694915  C 16.3398508474576 9.39888813559322  14.3951186440678 7.4567593220339  12 7.4567593220339  C 9.60488135593221 7.4567593220339  7.66014915254237 9.40149152542373  7.66014915254237 11.7966101694915  Z M 14.8923661016949 11.7966101694915  C 14.8923661016949 13.3950915254237  13.5984813559322 14.6889762711864  12 14.6889762711864  C 10.4015186440678 14.6889762711864  9.10763389830509 13.3950915254237  9.10763389830509 11.7966101694915  C 9.10763389830509 10.1981288135593  10.4015186440678 8.90424406779661  12 8.90424406779661  C 13.5984813559322 8.90424406779661  14.8923661016949 10.1981288135593  14.8923661016949 11.7966101694915  Z " fill-rule="nonzero" fill="#323233" stroke="none" transform="matrix(1 0 0 1 1340 346 )" />
  </g>
</svg>