<?xml version="1.0" encoding="utf-8"?>
<svg version="1.1" xmlns:xlink="http://www.w3.org/1999/xlink" width="48px" height="36px" xmlns="http://www.w3.org/2000/svg">
  <g transform="matrix(1 0 0 1 -1200 -384 )">
    <path d="M 1200 384  L 1248 384  L 1248 420  L 1200 420  L 1200 384  " fill-rule="nonzero" fill="#cccccc" stroke="none" />
    <path d="M 1203 387  L 1245 387  L 1245 417  L 1203 417  L 1203 387  " fill-rule="nonzero" fill="#ffffff" stroke="none" />
    <path d="M 1227.66 394.8  C 1226.148 394.8  1224.96 393.612  1224.96 392.1  C 1224.96 390.588  1226.148 389.4  1227.66 389.4  C 1229.172 389.4  1230.36 390.588  1230.36 392.1  C 1230.36 393.612  1229.172 394.8  1227.66 394.8  " fill-rule="nonzero" fill="#cccccc" stroke="none" />
    <path d="M 1204 416  L 1204 400.6  L 1214 393.6  L 1228 403.4  L 1236 397.8  L 1244 403.4  L 1244 416  L 1204 416  " fill-rule="nonzero" fill="#169bd5" stroke="none" />
  </g>
</svg>