<?xml version="1.0" encoding="utf-8"?>
<svg version="1.1" xmlns:xlink="http://www.w3.org/1999/xlink" width="16px" height="8px" xmlns="http://www.w3.org/2000/svg">
  <g transform="matrix(1 0 0 1 -1334 -236 )">
    <path d="M 8.61857959183673 7.51104921968787  C 8.3970612244898 7.70650660264105  8.08568163265306 7.77473229291717  7.80146938775511 7.71572629051621  C 7.64264489795918 7.68253541416566  7.49844897959184 7.61246578631452  7.38351020408163 7.51104921968787  L 0.403591836734692 1.35414165666266  C 0.0629551020408144 1.05357983193277  0.0629551020408144 0.56678031212485  0.403591836734692 0.268062424969989  C 0.744228571428569 -0.0324993997599028  1.29593469387755 -0.0324993997599028  1.63448163265306 0.268062424969989  L 8 5.88285234093637  L 14.3634285714286 0.268062424969989  C 14.7040653061224 -0.0324993997599028  15.2557714285714 -0.0324993997599028  15.5943183673469 0.268062424969989  C 15.9328653061224 0.568624249699878  15.9349551020408 1.0554237695078  15.5943183673469 1.35414165666266  L 8.61857959183673 7.51104921968787  Z " fill-rule="nonzero" fill="#272727" stroke="none" transform="matrix(1 0 0 1 1334 236 )" />
  </g>
</svg>