<?xml version="1.0" encoding="utf-8"?>
<svg version="1.1" xmlns:xlink="http://www.w3.org/1999/xlink" width="4px" height="7px" xmlns="http://www.w3.org/2000/svg">
  <g transform="matrix(1 0 0 1 -388 -326 )">
    <path d="M 2.64698181818182 0.644119148936169  L 2.64698181818182 5.94005106382979  L 3.29396363636364 5.94005106382979  C 3.65003636363637 5.94005106382979  3.94094545454546 6.17644255319149  3.94094545454546 6.4700255319149  C 3.94094545454546 6.7636085106383  3.65003636363636 7  3.29396363636364 7  L 0.706036363636362 7  C 0.349963636363635 7  0.0590545454545482 6.7636085106383  0.0590545454545482 6.47002553191489  C 0.0590545454545482 6.17644255319149  0.347636363636364 5.94005106382979  0.706036363636362 5.94005106382979  L 1.35301818181819 5.94005106382979  L 1.35301818181819 1.17409361702127  L 1.02952727272727 1.17409361702127  C 0.673454545454547 1.17409361702127  0.382545454545455 0.937702127659571  0.382545454545455 0.644119148936169  C 0.382545454545455 0.352442553191487  0.671127272727271 0.114144680851063  1.02952727272727 0.114144680851063  L 2 0.114144680851063  C 2.35607272727272 0.114144680851063  2.64698181818182 0.350536170212767  2.64698181818182 0.644119148936169  Z " fill-rule="nonzero" fill="#323233" stroke="none" transform="matrix(1 0 0 1 388 326 )" />
  </g>
</svg>