<?xml version="1.0" encoding="utf-8"?>
<svg version="1.1" xmlns:xlink="http://www.w3.org/1999/xlink" width="16px" height="16px" xmlns="http://www.w3.org/2000/svg">
  <g transform="matrix(1 0 0 1 -382 -320 )">
    <path d="M 1.01344561403509 8  C 1.01344561403509 11.8588631578947  4.14113684210526 14.9865543859649  8 14.9865543859649  C 11.8588631578947 14.9865543859649  14.9865543859649 11.8588631578947  14.9865543859649 8  C 14.9865543859649 4.14113684210526  11.8588631578947 1.01344561403509  8 1.01344561403509  C 4.14113684210526 1.01344561403509  1.01344561403509 4.14113684210526  1.01344561403509 8  Z M 15.9836070175439 8  C 15.9836070175439 12.4085894736842  12.4103859649123 15.9836070175439  8 15.9836070175439  C 3.58961403508772 15.9836070175439  0.0163929824561402 12.4103859649123  0.0163929824561402 8  C 0.0163929824561402 3.58961403508772  3.58961403508772 0.0163929824561402  8 0.0163929824561402  C 12.4103859649123 0.0163929824561402  15.9836070175439 3.59141052631579  15.9836070175439 8  Z " fill-rule="nonzero" fill="#323233" stroke="none" transform="matrix(1 0 0 1 382 320 )" />
  </g>
</svg>