<?xml version="1.0" encoding="utf-8"?>
<svg version="1.1" xmlns:xlink="http://www.w3.org/1999/xlink" width="70px" height="46px" xmlns="http://www.w3.org/2000/svg">
  <g transform="matrix(1 0 0 1 -1065 -379 )">
    <path d="M 1065 379  L 1135 379  L 1135 425  L 1065 425  L 1065 379  " fill-rule="nonzero" fill="#cccccc" stroke="none" />
    <path d="M 1068 382  L 1132 382  L 1132 422  L 1068 422  L 1068 382  " fill-rule="nonzero" fill="#ffffff" stroke="none" />
    <path d="M 1104.85 392.8  C 1102.918 392.8  1101.4 391.282  1101.4 389.35  C 1101.4 387.418  1102.918 385.9  1104.85 385.9  C 1106.782 385.9  1108.3 387.418  1108.3 389.35  C 1108.3 391.282  1106.782 392.8  1104.85 392.8  " fill-rule="nonzero" fill="#cccccc" stroke="none" />
    <path d="M 1069 421  L 1069 400.1  L 1084.5 390.6  L 1106.2 406.017142857143  L 1118.6 396.3  L 1131 406.017142857143  L 1131 421  L 1069 421  " fill-rule="nonzero" fill="#169bd5" stroke="none" />
  </g>
</svg>