<?xml version="1.0" encoding="utf-8"?>
<svg version="1.1" xmlns:xlink="http://www.w3.org/1999/xlink" width="8px" height="8px" xmlns="http://www.w3.org/2000/svg">
  <g transform="matrix(1 0 0 1 -417 -228 )">
    <path d="M 6.844672 1.724672  L 6.844672 7.387392  C 6.844672 7.401728  6.833408 7.412992  6.819072 7.412992  L 1.180928 7.412992  C 1.166592 7.412992  1.155328 7.401728  1.155328 7.387392  L 1.155328 1.724672  L 6.844672 1.724672  Z M 7.984384 1.44  C 7.982336 1.283328  7.854336 1.155328  7.697664 1.155328  L 0.302336000000001 1.155328  C 0.145663999999999 1.155328  0.0176640000000001 1.282304  0.0176640000000001 1.44  C 0.0176640000000001 1.596672  0.14464 1.724672  0.302336000000001 1.724672  L 0.587007999999999 1.724672  L 0.587007999999999 7.388416  C 0.587007999999999 7.71712  0.853248 7.98336  1.181952 7.98336  L 6.820096 7.98336  C 7.1488 7.98336  7.41504 7.71712  7.41504 7.388416  L 7.41504 1.724672  L 7.699712 1.724672  C 7.856384 1.724672  7.984384 1.597696  7.984384 1.44  Z M 5.137664 5.99168  C 5.137664 6.148352  5.265664 6.275328  5.422336 6.275328  C 5.579008 6.275328  5.707008 6.148352  5.707008 5.990656  L 5.707008 3.147008  C 5.707008 2.990336  5.580032 2.862336  5.422336 2.862336  C 5.26464 2.862336  5.137664 2.989312  5.137664 3.147008  L 5.137664 5.99168  Z M 2.292992 5.99168  C 2.292992 6.148352  2.420992 6.275328  2.577664 6.275328  C 2.734336 6.275328  2.862336 6.148352  2.862336 5.990656  L 2.862336 3.147008  C 2.862336 2.990336  2.73536 2.862336  2.577664 2.862336  C 2.419968 2.862336  2.292992 2.989312  2.292992 3.147008  L 2.292992 5.99168  Z M 3.715328 5.99168  C 3.715328 6.148352  3.843328 6.275328  4 6.275328  C 4.156672 6.275328  4.284672 6.148352  4.284672 5.990656  L 4.284672 3.147008  C 4.284672 2.990336  4.157696 2.862336  4 2.862336  C 3.842304 2.862336  3.715328 2.989312  3.715328 3.147008  L 3.715328 5.99168  Z M 1.724672 0.302336000000001  C 1.724672 0.460031999999999  1.851648 0.587007999999999  2.009344 0.587007999999999  L 5.99168 0.587007999999999  C 6.148352 0.587007999999999  6.276352 0.460031999999999  6.276352 0.302336000000001  C 6.276352 0.14464  6.149376 0.0176640000000001  5.99168 0.0176640000000001  L 2.009344 0.0176640000000001  C 1.852672 0.0176640000000001  1.724672 0.14464  1.724672 0.302336000000001  Z " fill-rule="nonzero" fill="#ffffff" stroke="none" transform="matrix(1 0 0 1 417 228 )" />
  </g>
</svg>