<?xml version="1.0" encoding="utf-8"?>
<svg version="1.1" xmlns:xlink="http://www.w3.org/1999/xlink" width="8px" height="8px" xmlns="http://www.w3.org/2000/svg">
  <g transform="matrix(1 0 0 1 -503 -228 )">
    <path d="M 3.823872 3.68768  L 6.873344 0.669952000000001  L 5.659904 0.669952000000001  C 5.476608 0.669952000000001  5.328128 0.522496000000001  5.328128 0.341248  C 5.328128 0.16  5.476608 0.0125440000000007  5.659904 0.0125440000000007  L 7.651584 0.0125440000000007  C 7.83488 0.0125440000000007  7.98336 0.158976000000001  7.98336 0.341248  L 7.98336 2.3104  C 7.98336 2.491648  7.83488 2.639104  7.651584 2.639104  C 7.468288 2.639104  7.319808 2.491648  7.319808 2.3104  L 7.319808 1.157376  L 4.292864 4.151552  C 4.162816 4.279552  3.952896 4.279552  3.823872 4.151552  C 3.7614941033428 4.09050130805581  3.72633681414506 4.00689823747269  3.72633681414506 3.919616  C 3.72633681414506 3.83233376252731  3.7614941033428 3.74873069194419  3.823872 3.68768  Z M 3.998976 7.419136  C 5.88416 7.417088  7.412992 5.88928  7.412992 4.004096  C 7.412992 3.847424  7.539968 3.719424  7.697664 3.719424  C 7.854336 3.719424  7.982336 3.8464  7.982336 4.004096  C 7.982336 6.203648  6.199552 7.986432  4 7.986432  C 1.799424 7.986432  0.0166399999999991 6.203648  0.0166399999999991 4.004096  C 0.0166399999999991 1.804544  1.799424 0.0217599999999986  3.998976 0.0217599999999986  C 4.155648 0.0217599999999986  4.283648 0.148735999999999  4.283648 0.306431999999999  C 4.283648 0.463103999999998  4.156672 0.591104  3.998976 0.591104  C 2.113792 0.591104  0.584960000000001 2.118912  0.584960000000001 4.00512  C 0.584960000000001 5.890304  2.112768 7.419136  3.998976 7.419136  Z " fill-rule="nonzero" fill="#ffffff" stroke="none" transform="matrix(1 0 0 1 503 228 )" />
  </g>
</svg>