<?xml version="1.0" encoding="utf-8"?>
<svg version="1.1" xmlns:xlink="http://www.w3.org/1999/xlink" width="16px" height="12px" xmlns="http://www.w3.org/2000/svg">
  <g transform="matrix(1 0 0 1 -535 -341 )">
    <path d="M 14.0416 10.8695253682488  L 14.0459574468085 2.82249427168576  L 12.6123574468085 4.06310965630115  C 12.2572255319149 4.37043535188216  11.6820425531915 4.37043535188216  11.3290893617021 4.06310965630115  C 10.9739574468085 3.75578396072013  10.9739574468085 3.2580294599018  11.3290893617021 2.95258919803601  L 14.2355063829787 0.437420621931261  C 14.3596936170213 0.297898527004911  14.5383489361702 0.196085106382981  14.7431489361702 0.154605564648118  C 15.0416340425532 0.0905008183306065  15.3728 0.158376432078561  15.6059234042553 0.360117839607201  C 15.8237957446808 0.548661211129298  15.9065872340426 0.806965630114568  15.8586553191489 1.05018657937807  L 15.8586553191489 10.8695253682488  C 15.8586553191489 11.3031751227496  15.4512340425532 11.6557512274959  14.9501276595745 11.6557512274959  C 14.4490212765957 11.6557512274959  14.0416 11.3031751227496  14.0416 10.8695253682488  Z M 0.126093617021278 1.92879869067103  C 0.126093617021278 1.49514893617021  0.531336170212766 1.1425728314239  1.03462127659575 1.1425728314239  L 8.9019914893617 1.1425728314239  C 9.40309787234043 1.1425728314239  9.81051914893617 1.49514893617021  9.81051914893617 1.92879869067103  C 9.81051914893617 2.36244844517185  9.40309787234042 2.71502454991817  8.9019914893617 2.71502454991817  L 1.03462127659575 2.71502454991817  C 0.533514893617022 2.71502454991817  0.126093617021278 2.36244844517185  0.126093617021278 1.92879869067103  Z M 0.126093617021278 6.11823240589198  C 0.126093617021278 5.68458265139117  0.531336170212766 5.33200654664485  1.03462127659575 5.33200654664485  L 8.9019914893617 5.33200654664485  C 9.40309787234043 5.33200654664485  9.81051914893617 5.68458265139116  9.81051914893617 6.11823240589198  C 9.81051914893617 6.5518821603928  9.40309787234042 6.90445826513912  8.9019914893617 6.90445826513912  L 1.03462127659575 6.90445826513912  C 0.533514893617022 6.90445826513912  0.126093617021278 6.5518821603928  0.126093617021278 6.11823240589198  Z M 0.126093617021278 10.3076661211129  C 0.126093617021278 9.87401636661211  0.531336170212766 9.5214402618658  1.03462127659575 9.5214402618658  L 8.9019914893617 9.5214402618658  C 9.40309787234043 9.5214402618658  9.81051914893617 9.87401636661211  9.81051914893617 10.3076661211129  C 9.81051914893617 10.7413158756138  9.40309787234042 11.0938919803601  8.9019914893617 11.0938919803601  L 1.03462127659575 11.0938919803601  C 0.533514893617022 11.0938919803601  0.126093617021278 10.7413158756138  0.126093617021278 10.3076661211129  Z " fill-rule="nonzero" fill="#bbbbbb" stroke="none" transform="matrix(1 0 0 1 535 341 )" />
  </g>
</svg>