<?xml version="1.0" encoding="utf-8"?>
<svg version="1.1" xmlns:xlink="http://www.w3.org/1999/xlink" width="14px" height="14px" xmlns="http://www.w3.org/2000/svg">
  <g transform="matrix(1 0 0 1 -889 -23 )">
    <path d="M 13.7029333333333 1.5536  L 8.25653333333333 7  L 13.7029333333333 12.4464  C 14.0506666666667 12.7941333333333  14.0506666666667 13.3573333333333  13.7029333333333 13.7029333333333  C 13.3552 14.0485333333333  12.792 14.0506666666667  12.4464 13.7029333333333  L 7 8.25653333333333  L 1.5536 13.7050666666667  C 1.20586666666667 14.0528  0.642666666666667 14.0528  0.297066666666667 13.7050666666667  C -0.0506666666666675 13.3573333333333  -0.0506666666666675 12.7941333333333  0.297066666666667 12.4485333333333  L 5.74346666666667 7  L 0.294933333333332 1.5536  C -0.0527999999999987 1.20586666666667  -0.0527999999999987 0.642666666666667  0.294933333333332 0.297066666666667  C 0.642666666666667 -0.0506666666666675  1.20586666666667 -0.0506666666666675  1.55146666666667 0.297066666666667  L 7 5.74346666666667  L 12.4464 0.297066666666667  C 12.7941333333333 -0.0506666666666675  13.3573333333333 -0.0506666666666675  13.7029333333333 0.297066666666667  C 14.0506666666667 0.644799999999998  14.0506666666667 1.208  13.7029333333333 1.5536  Z " fill-rule="nonzero" fill="#323233" stroke="none" transform="matrix(1 0 0 1 889 23 )" />
  </g>
</svg>